<?xml version="1.0" encoding="utf-8"?>
<!-- Svg Vector Icons : http://www.onlinewebfonts.com/icon -->
<!DOCTYPE svg PUBLIC "-//W3C//DTD SVG 1.1//EN" "http://www.w3.org/Graphics/SVG/1.1/DTD/svg11.dtd">
<svg version="1.1" xmlns="http://www.w3.org/2000/svg" xmlns:xlink="http://www.w3.org/1999/xlink" x="0px" y="0px" viewBox="0 0 256 256" enable-background="new 0 0 256 256" xml:space="preserve">
<metadata> Svg Vector Icons : http://www.onlinewebfonts.com/icon </metadata>
<g><g><path fill="#000000" d="M45.9,10.2c-4.1,0.4-8.5,1.9-13.3,3.7c-8.3,3.5-14.1,9.2-18.8,15.1c-4.7,5.9-5,13.1-1.5,22.5l19.2-8.1c-1.2-3.5-1.2-7.2,0-9.6c1.2-2.4,3.5-4.7,7-5.9c3.5-1.2,6.9-1.2,9.2,0c3.5,1.2,6.2,4.6,7.4,8.1c1.2,3.5,2.3,7.2,1.1,10.7c0,3.5-1.3,7.2-3.7,10.7c-3.5,5.9-5.8,10.5-7,14c0,3.5-0.1,8.5,2.2,14.4l19.2-5.9c-1.2-3.5-2.6-7.2-2.6-9.6c0-2.4,1.3-5.8,3.7-8.1c3.5-4.7,5.8-10.7,7-16.6c1.2-5.9,1.3-11.8-1.1-17.7c-3.5-8.3-9.5-14.2-16.6-16.6C53.8,10.1,50,9.7,45.9,10.2z M128.1,10.2c-14.2,0-28.3,2.2-41.3,8.1v1.5c3.5,5.9,4.8,13.9,4.8,21c11.8-4.7,23.5-7,36.5-7c51.9,0,94.3,42.5,94.3,94.3c0,51.9-42.5,94.3-94.3,94.3c-51.9,0-94.3-42.5-94.3-94.3c0-5.9-0.1-10.7,1.1-16.6l-8.1-19.9C24.4,85.7,23,79.7,24.2,75v-2.2c-9.4,16.5-14,35.2-14,55.3c0,64.9,53.1,117.9,117.9,117.9c64.9,0,117.9-53.1,117.9-117.9C246,63.2,192.9,10.2,128.1,10.2z M116.3,80.9c-13,0-23.6,10.5-23.6,23.6s10.5,23.6,23.6,23.6s23.6-10.5,23.6-23.6C139.9,91.5,129.3,80.9,116.3,80.9z M187,80.9c-13,0-23.6,10.5-23.6,23.6s10.5,23.6,23.6,23.6c13,0,23.6-10.5,23.6-23.6C210.6,91.5,200.1,80.9,187,80.9z M71.3,89l-18.8,7.4l5.9,16.2l18.8-7L71.3,89z M170.5,139.9c-64.9,0-75.5,59-75.5,59c1.2-1.2,29.5-24.7,75.5-24.7c9.4,0,16.6-7.2,16.6-16.6C187,148.1,179.9,139.9,170.5,139.9z"/></g></g>
</svg>